<svg aria-hidden="true" style="position: absolute; width: 0; height: 0; overflow: hidden;" version="1.1" xmlns="http://www.w3.org/2000/svg" xmlns:xlink="http://www.w3.org/1999/xlink">
<defs>
<symbol id="icon-back" viewBox="0 0 32 32">
<path d="M7.536 17.584l13.76 13.759c0.875 0.876 2.294 0.876 3.169 0s0.875-2.294 0-3.169l-12.175-12.175 12.175-12.174c0.875-0.875 0.875-2.294 0-3.169s-2.294-0.875-3.169 0l-13.76 13.759c-0.437 0.438-0.656 1.011-0.656 1.584s0.219 1.147 0.656 1.584z"></path>
</symbol>
<symbol id="icon-close" viewBox="0 0 32 32">
<path d="M14.491 16l-12.046-12.046 1.508-1.508 12.046 12.046 12.046-12.046 1.508 1.508-12.046 12.046 12.046 12.046-1.508 1.508-12.046-12.046-12.046 12.046-1.508-1.508 12.046-12.046z"></path>
</symbol>
<symbol id="icon-dislikeRedL" viewBox="0 0 32 32">
<path d="M0 16c0-8.837 7.163-16 16-16s16 7.163 16 16c0 8.837-7.163 16-16 16s-16-7.163-16-16zM16 2.133c-7.658 0-13.867 6.208-13.867 13.867s6.208 13.867 13.867 13.867c7.658 0 13.867-6.208 13.867-13.867s-6.208-13.867-13.867-13.867zM10.667 12.8v-2.133h-2.133v2.133h2.133zM23.467 12.8v-2.133h-2.133v2.133h2.133zM8.107 21.547l1.707 1.28 0.64-0.853c2.773-3.698 8.32-3.698 11.093 0l0.64 0.853 1.707-1.28-0.64-0.853c-3.627-4.836-10.88-4.836-14.507 0l-0.64 0.853z"></path>
</symbol>
<symbol id="icon-dislikeYellow" viewBox="0 0 32 32">
<path fill="#ffd280" style="fill: var(--color2, #ffd280)" d="M0 16c0-8.837 7.163-16 16-16s16 7.163 16 16c0 8.836-7.164 16-16 16s-16-7.164-16-16zM16 2.133c-7.658 0-13.867 6.208-13.867 13.867s6.208 13.867 13.867 13.867c7.658 0 13.867-6.208 13.867-13.867s-6.208-13.867-13.867-13.867zM10.667 12.8v-2.133h-2.133v2.133h2.133zM23.467 12.8v-2.133h-2.133v2.133h2.133zM8.107 21.547l1.707 1.28 0.64-0.853c2.773-3.698 8.32-3.698 11.093 0l0.64 0.853 1.707-1.28-0.64-0.853c-3.627-4.835-10.88-4.835-14.507 0l-0.64 0.853z"></path>
</symbol>
<symbol id="icon-dislikeYellowL" viewBox="0 0 32 32">
<path d="M0 16c0-8.837 7.163-16 16-16s16 7.163 16 16c0 8.837-7.163 16-16 16s-16-7.163-16-16zM16 2.133c-7.658 0-13.867 6.208-13.867 13.867s6.208 13.867 13.867 13.867c7.658 0 13.867-6.208 13.867-13.867s-6.208-13.867-13.867-13.867zM10.667 12.8v-2.133h-2.133v2.133h2.133zM23.467 12.8v-2.133h-2.133v2.133h2.133zM8.107 21.547l1.707 1.28 0.64-0.853c2.773-3.698 8.32-3.698 11.093 0l0.64 0.853 1.707-1.28-0.64-0.853c-3.627-4.836-10.88-4.836-14.507 0l-0.64 0.853z"></path>
</symbol>
<symbol id="icon-error" viewBox="0 0 32 32">
<path fill="#ff868e" style="fill: var(--color1, #ff868e)" d="M0 16c0-8.837 7.163-16 16-16s16 7.163 16 16c0 8.836-7.164 16-16 16s-16-7.164-16-16zM16 2.133c-7.658 0-13.867 6.208-13.867 13.867s6.208 13.867 13.867 13.867c7.658 0 13.867-6.208 13.867-13.867s-6.208-13.867-13.867-13.867zM14.492 16l-5.646 5.646 1.508 1.508 5.646-5.646 5.646 5.646 1.508-1.508-5.646-5.646 5.646-5.646-1.508-1.508-5.646 5.646-5.646-5.646-1.508 1.508 5.646 5.646z"></path>
</symbol>
<symbol id="icon-fav" viewBox="0 0 32 32">
<path d="M8.609 3.733c-3.576 0-6.476 2.899-6.476 6.476 0 1.717 0.682 3.365 1.897 4.579l11.97 11.97 11.97-11.97c1.214-1.214 1.897-2.862 1.897-4.579 0-3.576-2.899-6.476-6.476-6.476-1.717 0-3.365 0.682-4.579 1.897l-2.058 2.058c-0.416 0.417-1.092 0.417-1.508 0l-2.058-2.058c-1.214-1.214-2.862-1.897-4.579-1.897zM0 10.209c0-4.755 3.854-8.609 8.609-8.609 2.283 0 4.473 0.907 6.088 2.522l1.303 1.303 1.303-1.303c1.614-1.615 3.804-2.522 6.088-2.522 4.755 0 8.609 3.854 8.609 8.609 0 2.283-0.907 4.473-2.522 6.087l-12.724 12.724c-0.416 0.416-1.092 0.416-1.508 0l-12.724-12.724c-1.615-1.614-2.522-3.804-2.522-6.088z"></path>
</symbol>
<symbol id="icon-favRedS" viewBox="0 0 32 32">
<path fill="#ff868e" style="fill: var(--color1, #ff868e)" d="M8.609 3.733c-3.576 0-6.476 2.899-6.476 6.476 0 1.717 0.682 3.365 1.897 4.579l11.97 11.97 11.97-11.97c1.214-1.214 1.897-2.862 1.897-4.579 0-3.576-2.899-6.476-6.476-6.476-1.717 0-3.365 0.682-4.579 1.897l-2.058 2.058c-0.416 0.417-1.092 0.417-1.508 0l-2.058-2.058c-1.214-1.214-2.862-1.897-4.579-1.897zM0 10.209c0-4.755 3.854-8.609 8.609-8.609 2.283 0 4.473 0.907 6.088 2.522l1.303 1.303 1.303-1.303c1.614-1.615 3.804-2.522 6.088-2.522 4.755 0 8.609 3.854 8.609 8.609 0 2.283-0.907 4.473-2.522 6.087l-12.724 12.724c-0.416 0.416-1.092 0.416-1.508 0l-12.724-12.724c-1.615-1.614-2.522-3.804-2.522-6.088z"></path>
</symbol>
<symbol id="icon-favL" viewBox="0 0 32 32">
<path d="M8.609 4.267c-3.576 0-6.476 2.899-6.476 6.476 0 1.717 0.682 3.365 1.897 4.579l11.97 11.97 11.97-11.97c1.215-1.214 1.897-2.862 1.897-4.579 0-3.577-2.899-6.476-6.476-6.476-1.717 0-3.365 0.682-4.579 1.897l-2.058 2.058c-0.417 0.417-1.092 0.417-1.508 0l-2.057-2.058c-1.214-1.214-2.862-1.897-4.579-1.897zM0 10.742c0-4.755 3.854-8.609 8.609-8.609 2.283 0 4.473 0.907 6.088 2.522l1.303 1.303 1.303-1.303c1.614-1.615 3.804-2.522 6.088-2.522 4.755 0 8.609 3.854 8.609 8.609 0 2.283-0.907 4.473-2.522 6.088l-12.724 12.724c-0.417 0.417-1.092 0.417-1.508 0l-12.724-12.724c-1.615-1.614-2.522-3.804-2.522-6.088z"></path>
</symbol>
<symbol id="icon-favRed" viewBox="0 0 32 32">
<path d="M8.609 1.6c-4.755 0-8.609 3.854-8.609 8.609 0 2.283 0.907 4.473 2.522 6.087l12.724 12.724c0.417 0.416 1.092 0.416 1.508 0l12.724-12.724c1.615-1.614 2.522-3.804 2.522-6.088 0-4.755-3.854-8.609-8.609-8.609-2.283 0-4.473 0.907-6.088 2.522l-1.303 1.303-1.303-1.303c-1.615-1.615-3.804-2.522-6.088-2.522z"></path>
</symbol>
<symbol id="icon-favRedL" viewBox="0 0 32 32">
<path fill="#ff868e" style="fill: var(--color1, #ff868e)" d="M8.609 2.133c-4.755 0-8.609 3.854-8.609 8.609 0 2.283 0.907 4.473 2.522 6.088l12.724 12.724c0.417 0.417 1.092 0.417 1.508 0l12.724-12.724c1.615-1.614 2.522-3.804 2.522-6.088 0-4.755-3.854-8.609-8.609-8.609-2.283 0-4.473 0.907-6.088 2.522l-1.303 1.303-1.303-1.303c-1.614-1.615-3.804-2.522-6.088-2.522z"></path>
</symbol>
<symbol id="icon-Logo" viewBox="0 0 32 32">
<path fill="#ff868e" style="fill: var(--color1, #ff868e)" d="M10.454 16.61c0-3.4 2.756-6.156 6.156-6.156h9.234c3.4 0 6.156 2.756 6.156 6.156s-2.756 6.156-6.156 6.156h-9.234c-3.4 0-6.156-2.756-6.156-6.156z"></path>
<path fill="#ff868e" style="fill: var(--color1, #ff868e)" d="M16.61 32c-3.4 0-6.156-2.756-6.156-6.156v-9.234c0-3.4 2.756-6.156 6.156-6.156s6.156 2.756 6.156 6.156v9.234c0 3.4-2.756 6.156-6.156 6.156z"></path>
<path fill="#ff868e" style="fill: var(--color1, #ff868e)" d="M15.39 3.847c0 2.125-1.723 3.847-3.847 3.847s-3.847-1.723-3.847-3.847 1.723-3.847 3.847-3.847c2.125 0 3.847 1.723 3.847 3.847z"></path>
<path fill="#ff868e" style="fill: var(--color1, #ff868e)" d="M7.695 22.315c0 2.125-1.723 3.847-3.847 3.847s-3.847-1.723-3.847-3.847c0-2.125 1.723-3.847 3.847-3.847s3.847 1.723 3.847 3.847z"></path>
<path fill="#ff868e" style="fill: var(--color1, #ff868e)" d="M26.162 3.847c0 2.125-1.723 3.847-3.847 3.847s-3.847-1.723-3.847-3.847c0-2.125 1.723-3.847 3.847-3.847s3.847 1.723 3.847 3.847z"></path>
<path fill="#ff868e" style="fill: var(--color1, #ff868e)" d="M7.695 11.542c0 2.125-1.723 3.847-3.847 3.847s-3.847-1.723-3.847-3.847c0-2.125 1.723-3.847 3.847-3.847s3.847 1.723 3.847 3.847z"></path>
</symbol>
<symbol id="icon-likeRed" viewBox="0 0 32 32">
<path  d="M0 16c0-8.837 7.163-16 16-16s16 7.163 16 16c0 8.837-7.163 16-16 16s-16-7.163-16-16zM16 2.133c-7.658 0-13.867 6.208-13.867 13.867s6.208 13.867 13.867 13.867c7.658 0 13.867-6.208 13.867-13.867s-6.208-13.867-13.867-13.867zM10.667 12.8v-2.133h-2.133v2.133h2.133zM23.467 12.8v-2.133h-2.133v2.133h2.133zM9.813 17.707l-1.707 1.28 0.64 0.853c3.627 4.836 10.88 4.836 14.507 0l0.64-0.853-1.707-1.28-0.64 0.853c-2.773 3.698-8.32 3.698-11.093 0l-0.64-0.853z"></path>
</symbol>
<symbol id="icon-likeGreen" viewBox="0 0 32 32">
<path fill="#97eab9" style="fill: var(--color3, #97eab9)" d="M0 16c0-8.837 7.163-16 16-16s16 7.163 16 16c0 8.836-7.164 16-16 16s-16-7.164-16-16zM16 2.133c-7.658 0-13.867 6.208-13.867 13.867s6.208 13.867 13.867 13.867c7.658 0 13.867-6.208 13.867-13.867s-6.208-13.867-13.867-13.867zM10.667 12.8v-2.133h-2.133v2.133h2.133zM23.467 12.8v-2.133h-2.133v2.133h2.133zM9.813 17.707l-1.707 1.28 0.64 0.853c3.627 4.836 10.88 4.836 14.507 0l0.64-0.853-1.707-1.28-0.64 0.853c-2.773 3.698-8.32 3.698-11.093 0l-0.64-0.853z"></path>
</symbol>
<symbol id="icon-likeGreenL" viewBox="0 0 32 32">
<path d="M0 16c0-8.837 7.163-16 16-16s16 7.163 16 16c0 8.837-7.163 16-16 16s-16-7.163-16-16zM16 2.133c-7.658 0-13.867 6.208-13.867 13.867s6.208 13.867 13.867 13.867c7.658 0 13.867-6.208 13.867-13.867s-6.208-13.867-13.867-13.867zM10.667 12.8v-2.133h-2.133v2.133h2.133zM23.467 12.8v-2.133h-2.133v2.133h2.133zM9.813 17.707l-1.707 1.28 0.64 0.853c3.627 4.836 10.88 4.836 14.507 0l0.64-0.853-1.707-1.28-0.64 0.853c-2.773 3.698-8.32 3.698-11.093 0l-0.64-0.853z"></path>
</symbol>
<symbol id="icon-loading" viewBox="0 0 32 32">
<path stroke-linejoin="miter" stroke-linecap="butt" stroke-miterlimit="4" stroke-width="4" d="M30 16c0 7.732-6.268 14-14 14s-14-6.268-14-14c0-7.732 6.268-14 14-14s14 6.268 14 14z"></path>
</symbol>
<symbol id="icon-search" viewBox="0 0 32 32">
<path fill="#ff868e" style="fill: var(--color1, #ff868e)" d="M30.978 29.147l-7.616-7.921c1.958-2.328 3.031-5.257 3.031-8.306 0-7.124-5.796-12.92-12.92-12.92s-12.92 5.796-12.92 12.92c0 7.124 5.796 12.92 12.92 12.92 2.674 0 5.223-0.807 7.402-2.338l7.674 7.981c0.321 0.333 0.752 0.517 1.214 0.517 0.438 0 0.853-0.167 1.168-0.47 0.67-0.644 0.691-1.713 0.047-2.383zM13.473 3.37c5.266 0 9.55 4.284 9.55 9.55s-4.284 9.55-9.55 9.55-9.55-4.284-9.55-9.55c0-5.266 4.284-9.55 9.55-9.55z"></path>
</symbol>
<symbol id="icon-sort" viewBox="0 0 32 32">
<path d="M6.088 28.358l-4.579-4.579-1.508 1.508 6.4 6.4c0.2 0.2 0.471 0.312 0.754 0.312s0.554-0.112 0.754-0.312l6.4-6.4-1.508-1.508-4.579 4.579v-28.358h-2.133v28.358zM24.221 2.133c1.767 0 3.2 1.433 3.2 3.2v3.2h-6.4v-3.2c0-1.767 1.433-3.2 3.2-3.2zM27.421 10.667v4.267h2.133v-9.6c0-2.946-2.388-5.333-5.333-5.333s-5.333 2.388-5.333 5.333v9.6h2.133v-4.267h6.4zM18.888 17.067h6.4c2.356 0 4.267 1.91 4.267 4.267 0 1.274-0.559 2.418-1.444 3.2 0.886 0.782 1.444 1.926 1.444 3.2 0 2.356-1.91 4.267-4.267 4.267h-6.4v-14.933zM25.288 23.467c1.178 0 2.133-0.955 2.133-2.133s-0.955-2.133-2.133-2.133h-4.267v4.267h4.267zM21.021 25.6v4.267h4.267c1.178 0 2.133-0.955 2.133-2.133s-0.955-2.133-2.133-2.133h-4.267z"></path>
</symbol>
<symbol id="icon-sortReverse" viewBox="0 0 32 32">
<path d="M6.4 0.312l-6.4 6.4 1.508 1.508 4.579-4.579v28.358h2.133v-28.358l4.579 4.579 1.508-1.508-6.4-6.4c-0.417-0.417-1.092-0.417-1.508 0zM24.221 2.133c1.767 0 3.2 1.433 3.2 3.2v3.2h-6.4v-3.2c0-1.767 1.433-3.2 3.2-3.2zM27.421 10.667v4.267h2.133v-9.6c0-2.946-2.388-5.333-5.333-5.333s-5.333 2.388-5.333 5.333v9.6h2.133v-4.267h6.4zM18.888 17.067h6.4c2.356 0 4.267 1.91 4.267 4.267 0 1.274-0.559 2.418-1.444 3.2 0.886 0.782 1.444 1.926 1.444 3.2 0 2.356-1.91 4.267-4.267 4.267h-6.4v-14.933zM25.288 23.467c1.178 0 2.133-0.955 2.133-2.133s-0.955-2.133-2.133-2.133h-4.267v4.267h4.267zM21.021 25.6v4.267h4.267c1.178 0 2.133-0.955 2.133-2.133s-0.955-2.133-2.133-2.133h-4.267z"></path>
</symbol>
<symbol id="icon-success" viewBox="0 0 32 32">
<path fill="#97eab9" style="fill: var(--color3, #97eab9)" d="M0 16c0-8.837 7.163-16 16-16s16 7.163 16 16c0 8.836-7.164 16-16 16s-16-7.164-16-16zM16 2.133c-7.658 0-13.867 6.208-13.867 13.867s6.208 13.867 13.867 13.867c7.658 0 13.867-6.208 13.867-13.867s-6.208-13.867-13.867-13.867zM24.3 11.333l-1.666-1.333-7.854 9.817-5.564-4.637-1.366 1.639 7.236 6.030 9.213-11.516z"></path>
</symbol>
<symbol id="icon-update" viewBox="0 0 32 32">
<path d="M15.171 4l-2.477-2.475 1.524-1.525 5.074 5.071-5.074 5.071-1.524-1.525 2.461-2.46c-6.336 0.24-11.4 5.451-11.4 11.839 0 6.541 5.309 11.848 11.856 11.848s11.856-5.307 11.856-11.848v-1.078h2.156v1.078c0 7.733-6.276 14.004-14.012 14.004s-14.012-6.27-14.012-14.004c0-7.586 6.038-13.764 13.571-13.997z"></path>
</symbol>
<symbol id="icon-modalPlaceholder" viewBox="0 0 32 32">
<path d="M22.4 6.4c-1.767 0-3.2 1.433-3.2 3.2s1.433 3.2 3.2 3.2c1.767 0 3.2-1.433 3.2-3.2s-1.433-3.2-3.2-3.2z"></path>
<path d="M0 3.2v25.6c0 1.767 1.433 3.2 3.2 3.2h25.6c1.219 0 2.28-0.682 2.82-1.686 0.145-0.269 0.252-0.561 0.315-0.869 0.043-0.208 0.065-0.424 0.065-0.645v-25.6c0-1.767-1.433-3.2-3.2-3.2h-25.6c-1.767 0-3.2 1.433-3.2 3.2zM10.345 6.703l-0.745-0.745-7.467 7.467v-10.225c0-0.589 0.478-1.067 1.067-1.067h25.6c0.589 0 1.067 0.478 1.067 1.067v18.133h-4.892l-14.621-14.621c-0.003-0.003-0.006-0.006-0.009-0.009z"></path>
</symbol>
<symbol id="icon-upload" viewBox="0 0 32 32">
<path d="M15.732 0l-8.1 8.1 1.715 1.715 5.206-5.206v20.114h2.425v-20.272l5.847 5.398 1.645-1.782-8.739-8.067zM2.425 29.575h26.68v-14.553h2.425v16.978h-31.531v-16.978h2.425v14.553z"></path>
</symbol>
<symbol id="icon-PetsPaw" viewBox="0 0 180 32">
<path d="M2.202 31.508v-30.436h14.273c2.395 0 4.348 0.457 5.86 1.371 1.544 0.914 2.694 2.158 3.45 3.734s1.134 3.371 1.134 5.388c0 2.048-0.441 3.86-1.323 5.435-0.851 1.575-2.079 2.804-3.686 3.686-1.575 0.851-3.45 1.276-5.624 1.276h-7.704v9.547h-6.38zM8.582 16.904h6.38c1.827 0 3.198-0.473 4.112-1.418 0.945-0.977 1.418-2.284 1.418-3.923 0-1.764-0.441-3.104-1.323-4.017-0.882-0.945-2.206-1.418-3.97-1.418h-6.617v10.776z"></path>
<path d="M42.122 31.98c-3.875 0-6.947-0.961-9.216-2.883-2.269-1.953-3.403-4.899-3.403-8.838 0-3.56 0.945-6.38 2.836-8.46 1.922-2.111 4.773-3.167 8.554-3.167 3.466 0 6.112 0.914 7.94 2.741 1.859 1.796 2.788 4.159 2.788 7.089v4.064h-16.211c0.347 1.796 1.166 3.025 2.458 3.686 1.323 0.662 3.182 0.992 5.577 0.992 1.197 0 2.41-0.11 3.639-0.331 1.26-0.221 2.332-0.504 3.214-0.851v4.537c-1.040 0.473-2.253 0.819-3.639 1.040-1.386 0.252-2.899 0.378-4.537 0.378zM35.41 18.605h10.634v-1.229c0-1.292-0.378-2.3-1.134-3.025-0.756-0.756-2.032-1.134-3.828-1.134-2.111 0-3.592 0.425-4.443 1.276-0.819 0.851-1.229 2.221-1.229 4.112z"></path>
<path d="M64.949 31.98c-2.584 0-4.506-0.677-5.766-2.032-1.229-1.355-1.843-3.198-1.843-5.53v-10.398h-3.167v-4.915h3.167v-4.821l6.38-1.89v6.711h5.671l-0.378 4.915h-5.293v9.972c0 1.229 0.284 2.080 0.851 2.552 0.567 0.441 1.449 0.662 2.647 0.662 0.882 0 1.796-0.158 2.741-0.473v4.395c-0.693 0.284-1.449 0.488-2.269 0.614-0.819 0.158-1.733 0.236-2.741 0.236z"></path>
<path d="M81.125 31.98c-1.67 0-3.261-0.126-4.773-0.378-1.512-0.221-2.725-0.504-3.639-0.851v-5.293c1.103 0.441 2.347 0.788 3.734 1.040 1.386 0.221 2.662 0.331 3.828 0.331 1.575 0 2.678-0.095 3.308-0.284 0.662-0.189 0.993-0.614 0.993-1.276 0-0.756-0.504-1.308-1.512-1.654-0.977-0.347-2.442-0.835-4.395-1.465-2.048-0.693-3.623-1.528-4.726-2.505s-1.654-2.426-1.654-4.348c0-2.143 0.772-3.781 2.316-4.915 1.575-1.166 4.096-1.749 7.562-1.749 1.386 0 2.694 0.11 3.923 0.331 1.229 0.189 2.269 0.425 3.119 0.709v5.246c-0.851-0.41-1.827-0.709-2.93-0.898-1.103-0.221-2.127-0.331-3.072-0.331-1.355 0-2.442 0.095-3.261 0.284-0.788 0.189-1.182 0.599-1.182 1.229 0 0.693 0.425 1.182 1.276 1.465 0.882 0.284 2.237 0.709 4.064 1.276 1.796 0.536 3.198 1.119 4.206 1.749s1.717 1.386 2.127 2.269c0.41 0.851 0.614 1.922 0.614 3.214 0 4.537-3.308 6.806-9.925 6.806z"></path>
<path d="M95.479 31.508v-30.436h14.273c2.395 0 4.348 0.457 5.86 1.371 1.544 0.914 2.694 2.158 3.45 3.734s1.134 3.371 1.134 5.388c0 2.048-0.441 3.86-1.323 5.435-0.851 1.575-2.079 2.804-3.686 3.686-1.575 0.851-3.45 1.276-5.624 1.276h-7.704v9.547h-6.38zM101.859 16.904h6.38c1.827 0 3.198-0.473 4.112-1.418 0.945-0.977 1.418-2.284 1.418-3.923 0-1.764-0.441-3.104-1.323-4.017-0.882-0.945-2.206-1.418-3.97-1.418h-6.617v10.776z"></path>
<path d="M129.844 31.98c-1.418 0-2.741-0.252-3.97-0.756-1.197-0.536-2.174-1.308-2.93-2.316-0.725-1.040-1.087-2.332-1.087-3.875 0-2.206 0.772-3.97 2.316-5.293 1.575-1.323 3.891-1.985 6.947-1.985h6.617v-0.614c0-1.386-0.394-2.363-1.182-2.93-0.756-0.567-2.3-0.851-4.632-0.851-2.552 0-5.010 0.394-7.373 1.182v-4.49c1.040-0.41 2.3-0.74 3.781-0.992 1.512-0.284 3.151-0.425 4.915-0.425 3.371 0 5.971 0.693 7.798 2.079 1.859 1.355 2.788 3.545 2.788 6.569v14.226h-5.53l-0.331-2.032c-0.882 0.788-1.969 1.402-3.261 1.843s-2.914 0.662-4.868 0.662zM131.593 27.774c1.418 0 2.647-0.236 3.686-0.709s1.859-1.071 2.458-1.796v-3.545h-6.475c-2.489 0-3.734 1.024-3.734 3.072 0 1.985 1.355 2.977 4.065 2.977z"></path>
<path d="M152.734 31.508l-5.908-22.402h6.38l3.403 14.557 3.734-11.674v-2.883h4.868l4.254 14.557 3.308-14.557h6.333l-5.86 22.402h-5.86l-4.301-13.091-4.395 13.091h-5.955z"></path>
</symbol>
</defs>
</svg>
